<?xml version="1.0" standalone="no"?>
<!DOCTYPE svg PUBLIC "-//W3C//DTD SVG 20010904//EN"
 "http://www.w3.org/TR/2001/REC-SVG-20010904/DTD/svg10.dtd">
<svg version="1.0" xmlns="http://www.w3.org/2000/svg"
 width="2432.000000pt" height="2949.000000pt" viewBox="0 0 2432.000000 2949.000000"
 preserveAspectRatio="xMidYMid meet">

<g transform="translate(0.000000,2949.000000) scale(0.100000,-0.100000)"
fill="#000000" stroke="none">
<path d="M12251 29380 c-71 -236 -329 -1002 -420 -1250 -510 -1377 -1095
-2585 -1906 -3935 -651 -1084 -1337 -2114 -3240 -4860 -574 -829 -776 -1138
-990 -1515 -544 -958 -921 -2157 -1060 -3371 -42 -376 -65 -739 -65 -1060 l0
-195 -57 -18 c-272 -85 -598 -218 -898 -366 -1054 -519 -1928 -1282 -2549
-2224 -1049 -1589 -1337 -3419 -801 -5076 394 -1217 1212 -2327 2427 -3297
623 -497 1389 -969 2082 -1283 632 -286 1468 -554 2166 -694 1040 -208 2134
-270 3700 -211 1513 57 2254 122 3051 270 1705 316 3134 1059 4325 2249 341
341 588 648 685 850 120 251 7 284 -341 99 -58 -31 -238 -131 -400 -223 -617
-350 -1150 -626 -1575 -814 -1886 -837 -3732 -1138 -5880 -960 -374 30 -1135
113 -1475 160 -1060 144 -1886 383 -2669 769 -1060 523 -1845 1072 -2451 1710
-1055 1112 -1456 2484 -1160 3965 254 1269 967 2370 2017 3116 72 52 138 96
145 99 9 4 27 -31 57 -112 301 -799 763 -1601 1315 -2282 329 -407 772 -849
1180 -1180 1031 -835 2235 -1399 3545 -1661 435 -87 785 -128 1316 -155 l110
-5 -160 86 c-656 351 -1162 729 -1671 1245 -527 536 -902 1052 -1203 1659
-280 565 -475 1194 -565 1822 -153 1062 -10 2064 408 2873 179 346 386 623
856 1145 599 664 827 942 1152 1400 212 299 476 722 693 1110 205 366 541
1056 681 1398 20 50 40 92 43 92 3 0 22 -26 42 -58 20 -31 80 -126 133 -210
337 -534 705 -1252 941 -1838 294 -727 492 -1533 545 -2213 13 -172 13 -580 0
-747 -62 -788 -312 -1499 -762 -2165 -352 -521 -840 -1003 -1408 -1388 -117
-80 -135 -89 -141 -73 -28 74 -117 679 -143 967 -37 407 -48 984 -26 1358 55
915 241 1814 550 2657 93 253 85 229 63 204 -476 -542 -962 -1278 -1266 -1914
-340 -713 -529 -1357 -592 -2016 -17 -183 -20 -594 -5 -764 69 -760 348 -1456
820 -2045 174 -218 409 -455 615 -620 177 -143 467 -319 689 -418 458 -206
1446 -475 2141 -582 415 -64 772 -94 1220 -102 616 -11 1026 33 2574 277 1160
183 2504 452 3146 630 701 194 1245 475 1739 900 299 257 512 512 621 743 115
243 149 443 149 857 -1 349 -32 599 -109 863 -144 499 -649 1017 -1525 1564
-897 560 -1904 1004 -2936 1294 l-191 54 -7 115 c-16 280 -60 655 -112 965
-217 1289 -800 2665 -1694 4000 -269 401 -446 627 -766 975 -371 404 -589 663
-952 1127 -839 1073 -1589 2170 -2054 3002 -137 245 -407 786 -515 1031 -553
1258 -916 2548 -1127 4010 l-43 295 -32 -105z m-67 -4180 c357 -1090 885
-2175 1514 -3105 336 -497 587 -799 1222 -1465 766 -804 1098 -1218 1901
-2375 962 -1383 1378 -2279 1558 -3354 61 -361 75 -542 75 -981 1 -417 -6
-545 -50 -867 -121 -900 -396 -1677 -884 -2493 -503 -840 -1072 -1370 -1902
-1770 -426 -205 -818 -315 -1248 -351 -514 -42 -1093 87 -1551 346 -120 68
-309 192 -309 203 0 4 59 41 132 82 257 146 614 393 843 585 966 806 1617
1860 1879 3043 108 483 141 842 133 1411 -5 376 -15 515 -62 861 -173 1291
-528 2201 -1371 3515 -699 1091 -1188 1730 -1903 2489 l-206 220 -7 -235 c-28
-1041 -264 -1872 -815 -2877 -368 -673 -909 -1438 -1308 -1850 -62 -64 -210
-214 -330 -332 -248 -246 -361 -373 -520 -585 -189 -253 -444 -639 -608 -921
-493 -850 -754 -1659 -818 -2539 -22 -303 -3 -811 41 -1125 83 -585 257 -1171
516 -1733 39 -86 70 -157 67 -157 -7 0 -251 202 -362 299 -148 131 -459 441
-599 596 -900 1005 -1404 2162 -1492 3425 -13 185 -13 563 0 750 73 1059 402
2123 1049 3385 225 439 529 987 682 1231 277 442 460 682 1049 1379 667 790
1191 1512 1782 2455 612 976 1204 2087 1660 3115 44 99 83 184 86 190 3 5 21
-40 40 -100 18 -61 70 -225 116 -365z m7373 -12699 c357 -127 700 -311 1058
-567 317 -226 492 -375 613 -519 179 -213 273 -410 318 -665 28 -157 25 -438
-5 -580 -57 -267 -161 -472 -330 -652 -143 -153 -276 -243 -556 -379 -879
-426 -2130 -831 -3720 -1204 -307 -72 -1215 -275 -1229 -275 -6 0 66 31 159
69 826 331 1373 685 1916 1238 195 199 289 308 454 528 544 724 934 1624 1124
2595 25 128 71 414 71 443 0 12 15 8 127 -32z"/>
</g>
</svg>
